<svg class="MuiSvgIcon-root MuiSvgIcon-fontSizeMedium MuiSvgIcon-root MuiSvgIcon-fontSizeLarge css-p79yt4"
     focusable="false" aria-hidden="true" viewBox="0 0 24 24" data-testid="FormatIndentDecreaseTwoToneIcon"
     tabindex="-1" title="FormatIndentDecreaseTwoTone">
    <path d="M7 16V8l-4 4zm4-9h10v2H11zm0 4h10v2H11zm0 4h10v2H11zm-8 4h18v2H3zM3 3h18v2H3z"></path>
</svg>
<svg class="MuiSvgIcon-root MuiSvgIcon-fontSizeMedium MuiSvgIcon-root MuiSvgIcon-fontSizeLarge css-p79yt4"
     focusable="false" aria-hidden="true" viewBox="0 0 24 24" data-testid="FormatIndentIncreaseTwoToneIcon"
     tabindex="-1" title="FormatIndentIncreaseTwoTone">
<path d="M3 19h18v2H3zM3 3h18v2H3zm8 4h10v2H11zM3 8v8l4-4zm8 3h10v2H11zm0 4h10v2H11z"></path>
</svg>